<?xml version="1.0" encoding="utf-8"?>
<svg style="isolation:isolate" viewBox="66.993 897.484 32 32.000001" version="1.1" id="svg11" width="32" height="32" xmlns="http://www.w3.org/2000/svg">
  <g id="g763" transform="translate(52.008497,8.73577)">
    <g id="g761">
      <rect style="fill:#ffffff;fill-opacity:1;stroke:none;stroke-width:1;stroke-dasharray:none;stroke-opacity:1;paint-order:fill markers stroke" id="rect757" width="32" height="32" x="14.984506" y="888.74823" rx="5" ry="5"/>
      <g transform="matrix(1, 0, 0, 1, -0.105853, 0.076508)">
        <path d="M 27.014 894.735 C 26.933 895.398 26.619 895.93 26.319 896.512 C 25.581 897.987 25.503 899.693 25.969 901.279 C 26.786 903.504 28.301 905.298 29.854 907.006 C 30.26 907.455 30.656 907.916 31.05 908.378 C 31.1 908.436 31.149 908.493 31.201 908.553 C 32.624 910.217 33.945 911.944 33.876 914.276 C 33.741 915.305 33.254 916.192 32.465 916.835 C 31.134 917.648 29.697 917.363 28.283 916.994 C 25.638 916.17 23.293 914.448 21.249 912.567 C 21.143 912.47 21.038 912.375 20.929 912.274 C 20.648 912.016 20.372 911.753 20.096 911.49 C 20.028 911.426 19.961 911.362 19.89 911.296 C 18.254 909.685 16.466 907.257 16.371 904.848 C 16.384 904.204 16.535 903.578 16.983 903.111 C 17.388 903.081 17.79 903.068 18.196 903.064 C 18.802 903.045 19.156 902.934 19.636 902.514 C 19.828 902.277 19.828 902.277 19.967 902.005 C 20.024 901.9 20.081 901.796 20.14 901.687 C 20.318 901.335 20.489 900.979 20.657 900.621 C 21.336 899.181 22.122 897.917 23.21 896.768 C 23.289 896.685 23.368 896.602 23.449 896.515 C 24.262 895.714 25.85 894.388 27.014 894.735 Z M 26.438 910.174 C 26.165 910.56 26.147 910.901 26.207 911.371 C 26.586 912.349 27.383 912.918 28.29 913.323 C 29.189 913.657 29.189 913.657 30.128 913.644 C 30.491 913.417 30.491 913.417 30.703 913.045 C 30.748 912.261 30.335 911.619 29.897 911.011 C 29.241 910.28 28.574 909.706 27.584 909.642 C 27.067 909.701 26.83 909.824 26.438 910.174 Z" fill="#000000" style="stroke-width: 1;"/>
        <path d="M 34.509 892.581 C 34.58 892.608 34.652 892.636 34.726 892.666 C 37.238 893.682 39.416 895.291 41.368 897.205 C 41.606 897.435 41.846 897.654 42.097 897.869 C 42.538 898.258 42.906 898.698 43.272 899.162 C 43.363 899.277 43.453 899.393 43.546 899.511 C 44.767 901.091 45.859 902.806 45.808 904.907 C 45.708 905.422 45.594 905.848 45.231 906.224 C 44.801 906.335 44.403 906.342 43.964 906.329 C 43.445 906.328 43.123 906.369 42.694 906.702 C 42.137 907.447 41.744 908.286 41.34 909.126 C 40.144 911.557 38.434 913.738 35.893 914.721 C 35.505 914.74 35.505 914.74 35.201 914.721 C 35.225 914.151 35.34 913.81 35.64 913.329 C 36.499 911.9 36.683 910.322 36.397 908.684 C 35.927 906.912 34.943 905.456 33.817 904.07 C 33.759 903.996 33.699 903.923 33.638 903.847 C 33.052 903.119 32.463 902.403 31.806 901.741 C 31.455 901.381 31.137 900.991 30.82 900.599 C 30.768 900.535 30.716 900.474 30.663 900.409 C 29.439 898.916 28.185 897.27 28.296 895.205 C 28.45 894.055 28.989 893.125 29.872 892.414 C 31.197 891.635 33.181 892.054 34.509 892.581 Z M 31.51 896.171 C 31.461 897.176 31.91 897.823 32.512 898.561 C 33.092 899.211 33.71 899.654 34.58 899.702 C 35.088 899.675 35.396 899.52 35.777 899.162 C 35.998 898.795 36.009 898.587 35.993 898.153 C 35.795 897.312 35.366 896.899 34.681 896.457 C 33.726 895.905 32.419 895.228 31.51 896.171 Z" fill="#000000" style="stroke-width: 1;"/>
      </g>
    </g>
  </g>
</svg>